<?xml version="1.0" encoding="UTF-8" standalone="no"?>
<!DOCTYPE svg PUBLIC "-//W3C//DTD SVG 1.1//EN"
 "http://www.w3.org/Graphics/SVG/1.1/DTD/svg11.dtd">
<!-- Generated by graphviz version 2.38.0 (20140413.2041)
 -->
<!-- Title: G Pages: 1 -->
<svg width="420pt" height="212pt"
 viewBox="0.00 0.00 420.08 212.00" xmlns="http://www.w3.org/2000/svg" xmlns:xlink="http://www.w3.org/1999/xlink">
<g id="graph0" class="graph" transform="scale(1 1) rotate(0) translate(4 208)">
<title>G</title>
<polygon fill="white" stroke="none" points="-4,4 -4,-208 416.083,-208 416.083,4 -4,4"/>
<g id="clust1" class="cluster"><title>cluster_Global</title>
<path fill="none" stroke="gray" d="M267.083,-8C267.083,-8 392.083,-8 392.083,-8 398.083,-8 404.083,-14 404.083,-20 404.083,-20 404.083,-184 404.083,-184 404.083,-190 398.083,-196 392.083,-196 392.083,-196 267.083,-196 267.083,-196 261.083,-196 255.083,-190 255.083,-184 255.083,-184 255.083,-20 255.083,-20 255.083,-14 261.083,-8 267.083,-8"/>
<text text-anchor="middle" x="329.583" y="-183.2" font-family="Times,serif" font-size="11.00" fill="gray">Global</text>
</g>
<g id="clust2" class="cluster"><title>cluster_\CloudFile</title>
<path fill="none" stroke="gray" d="M294.583,-60C294.583,-60 364.583,-60 364.583,-60 370.583,-60 376.583,-66 376.583,-72 376.583,-72 376.583,-156 376.583,-156 376.583,-162 370.583,-168 364.583,-168 364.583,-168 294.583,-168 294.583,-168 288.583,-168 282.583,-162 282.583,-156 282.583,-156 282.583,-72 282.583,-72 282.583,-66 288.583,-60 294.583,-60"/>
<text text-anchor="middle" x="329.583" y="-155.2" font-family="Times,serif" font-size="11.00" fill="gray">CloudFile</text>
</g>
<g id="clust3" class="cluster"><title>cluster_\CloudFile\Adapter</title>
<path fill="none" stroke="gray" d="M302.583,-68C302.583,-68 356.583,-68 356.583,-68 362.583,-68 368.583,-74 368.583,-80 368.583,-80 368.583,-128 368.583,-128 368.583,-134 362.583,-140 356.583,-140 356.583,-140 302.583,-140 302.583,-140 296.583,-140 290.583,-134 290.583,-128 290.583,-128 290.583,-80 290.583,-80 290.583,-74 296.583,-68 302.583,-68"/>
<text text-anchor="middle" x="329.583" y="-127.2" font-family="Times,serif" font-size="11.00" fill="gray">Adapter</text>
</g>
<!-- \\CloudFile\\Adapter\\Base -->
<g id="node1" class="node"><title>\\CloudFile\\Adapter\\Base</title>
<polygon fill="none" stroke="black" points="360.583,-112 298.583,-112 298.583,-76 360.583,-76 360.583,-112"/>
<text text-anchor="start" x="306.583" y="-97.2" font-family="Times,serif" font-size="11.00">«abstract»</text>
<text text-anchor="start" x="318.083" y="-85.2" font-family="Times,serif" font-size="11.00">Base</text>
</g>
<!-- \\CloudFile_Module_Model -->
<g id="node2" class="node"><title>\\CloudFile_Module_Model</title>
<polygon fill="none" stroke="black" points="396.083,-52 263.083,-52 263.083,-16 396.083,-16 396.083,-52"/>
<text text-anchor="middle" x="329.583" y="-31.2" font-family="Times,serif" font-size="11.00">CloudFile_Module_Model</text>
</g>
<!-- \\Vtiger_Module_Model -->
<g id="node3" class="node"><title>\\Vtiger_Module_Model</title>
<ellipse fill="none" stroke="black" cx="95.5415" cy="-34" rx="95.5831" ry="18"/>
<text text-anchor="middle" x="95.5415" y="-30.3" font-family="Times,serif" font-size="14.00" fill="gray">\Vtiger_Module_Model</text>
</g>
<!-- \\CloudFile_Module_Model&#45;&gt;\\Vtiger_Module_Model -->
<g id="edge1" class="edge"><title>\\CloudFile_Module_Model&#45;&gt;\\Vtiger_Module_Model</title>
<path fill="none" stroke="black" d="M263.02,-34C243.901,-34 222.512,-34 201.603,-34"/>
<polygon fill="none" stroke="black" points="201.388,-30.5001 191.388,-34 201.388,-37.5001 201.388,-30.5001"/>
</g>
</g>
</svg>
